Simulate reflexes
version=1
nRows=4
nColumns=195
inDegrees=yes
endheader
time	/jointset/ground_platform/platform_rx/value	/jointset/ground_platform/platform_rx/speed	/jointset/ground_platform/platform_ry/value	/jointset/ground_platform/platform_ry/speed	/jointset/ground_platform/platform_rz/value	/jointset/ground_platform/platform_rz/speed	/jointset/ground_platform/platform_ty/value	/jointset/ground_platform/platform_ty/speed	/jointset/ground_pelvis/pelvis_tilt/value	/jointset/ground_pelvis/pelvis_tilt/speed	/jointset/ground_pelvis/pelvis_list/value	/jointset/ground_pelvis/pelvis_list/speed	/jointset/ground_pelvis/pelvis_rotation/value	/jointset/ground_pelvis/pelvis_rotation/speed	/jointset/ground_pelvis/pelvis_tx/value	/jointset/ground_pelvis/pelvis_tx/speed	/jointset/ground_pelvis/pelvis_ty/value	/jointset/ground_pelvis/pelvis_ty/speed	/jointset/ground_pelvis/pelvis_tz/value	/jointset/ground_pelvis/pelvis_tz/speed	/jointset/hip_r/hip_flexion_r/value	/jointset/hip_r/hip_flexion_r/speed	/jointset/hip_r/hip_adduction_r/value	/jointset/hip_r/hip_adduction_r/speed	/jointset/hip_r/hip_rotation_r/value	/jointset/hip_r/hip_rotation_r/speed	/jointset/knee_r/knee_angle_r/value	/jointset/knee_r/knee_angle_r/speed	/jointset/ankle_r/ankle_angle_r/value	/jointset/ankle_r/ankle_angle_r/speed	/jointset/subtalar_r/subtalar_angle_r/value	/jointset/subtalar_r/subtalar_angle_r/speed	/jointset/mtp_r/mtp_angle_r/value	/jointset/mtp_r/mtp_angle_r/speed	/jointset/hip_l/hip_flexion_l/value	/jointset/hip_l/hip_flexion_l/speed	/jointset/hip_l/hip_adduction_l/value	/jointset/hip_l/hip_adduction_l/speed	/jointset/hip_l/hip_rotation_l/value	/jointset/hip_l/hip_rotation_l/speed	/jointset/knee_l/knee_angle_l/value	/jointset/knee_l/knee_angle_l/speed	/jointset/ankle_l/ankle_angle_l/value	/jointset/ankle_l/ankle_angle_l/speed	/jointset/subtalar_l/subtalar_angle_l/value	/jointset/subtalar_l/subtalar_angle_l/speed	/jointset/mtp_l/mtp_angle_l/value	/jointset/mtp_l/mtp_angle_l/speed	/jointset/back/lumbar_extension/value	/jointset/back/lumbar_extension/speed	/jointset/back/lumbar_bending/value	/jointset/back/lumbar_bending/speed	/jointset/back/lumbar_rotation/value	/jointset/back/lumbar_rotation/speed	/forceset/glut_med1_r/activation	/forceset/glut_med1_r/fiber_length	/forceset/glut_med2_r/activation	/forceset/glut_med2_r/fiber_length	/forceset/glut_med3_r/activation	/forceset/glut_med3_r/fiber_length	/forceset/bifemlh_r/activation	/forceset/bifemlh_r/fiber_length	/forceset/bifemsh_r/activation	/forceset/bifemsh_r/fiber_length	/forceset/sar_r/activation	/forceset/sar_r/fiber_length	/forceset/add_mag2_r/activation	/forceset/add_mag2_r/fiber_length	/forceset/tfl_r/activation	/forceset/tfl_r/fiber_length	/forceset/pect_r/activation	/forceset/pect_r/fiber_length	/forceset/grac_r/activation	/forceset/grac_r/fiber_length	/forceset/glut_max1_r/activation	/forceset/glut_max1_r/fiber_length	/forceset/glut_max2_r/activation	/forceset/glut_max2_r/fiber_length	/forceset/glut_max3_r/activation	/forceset/glut_max3_r/fiber_length	/forceset/iliacus_r/activation	/forceset/iliacus_r/fiber_length	/forceset/psoas_r/activation	/forceset/psoas_r/fiber_length	/forceset/quad_fem_r/activation	/forceset/quad_fem_r/fiber_length	/forceset/gem_r/activation	/forceset/gem_r/fiber_length	/forceset/peri_r/activation	/forceset/peri_r/fiber_length	/forceset/rect_fem_r/activation	/forceset/rect_fem_r/fiber_length	/forceset/vas_int_r/activation	/forceset/vas_int_r/fiber_length	/forceset/med_gas_r/activation	/forceset/med_gas_r/fiber_length	/forceset/lat_gas_r/activation	/forceset/lat_gas_r/fiber_length	/forceset/soleus_r/activation	/forceset/soleus_r/fiber_length	/forceset/tib_post_r/activation	/forceset/tib_post_r/fiber_length	/forceset/flex_dig_r/activation	/forceset/flex_dig_r/fiber_length	/forceset/flex_hal_r/activation	/forceset/flex_hal_r/fiber_length	/forceset/tib_ant_r/activation	/forceset/tib_ant_r/fiber_length	/forceset/per_brev_r/activation	/forceset/per_brev_r/fiber_length	/forceset/per_long_r/activation	/forceset/per_long_r/fiber_length	/forceset/per_tert_r/activation	/forceset/per_tert_r/fiber_length	/forceset/ext_dig_r/activation	/forceset/ext_dig_r/fiber_length	/forceset/ext_hal_r/activation	/forceset/ext_hal_r/fiber_length	/forceset/glut_med1_l/activation	/forceset/glut_med1_l/fiber_length	/forceset/glut_med2_l/activation	/forceset/glut_med2_l/fiber_length	/forceset/glut_med3_l/activation	/forceset/glut_med3_l/fiber_length	/forceset/bifemlh_l/activation	/forceset/bifemlh_l/fiber_length	/forceset/bifemsh_l/activation	/forceset/bifemsh_l/fiber_length	/forceset/sar_l/activation	/forceset/sar_l/fiber_length	/forceset/add_mag2_l/activation	/forceset/add_mag2_l/fiber_length	/forceset/tfl_l/activation	/forceset/tfl_l/fiber_length	/forceset/pect_l/activation	/forceset/pect_l/fiber_length	/forceset/grac_l/activation	/forceset/grac_l/fiber_length	/forceset/glut_max1_l/activation	/forceset/glut_max1_l/fiber_length	/forceset/glut_max2_l/activation	/forceset/glut_max2_l/fiber_length	/forceset/glut_max3_l/activation	/forceset/glut_max3_l/fiber_length	/forceset/iliacus_l/activation	/forceset/iliacus_l/fiber_length	/forceset/psoas_l/activation	/forceset/psoas_l/fiber_length	/forceset/quad_fem_l/activation	/forceset/quad_fem_l/fiber_length	/forceset/gem_l/activation	/forceset/gem_l/fiber_length	/forceset/peri_l/activation	/forceset/peri_l/fiber_length	/forceset/rect_fem_l/activation	/forceset/rect_fem_l/fiber_length	/forceset/vas_int_l/activation	/forceset/vas_int_l/fiber_length	/forceset/med_gas_l/activation	/forceset/med_gas_l/fiber_length	/forceset/lat_gas_l/activation	/forceset/lat_gas_l/fiber_length	/forceset/soleus_l/activation	/forceset/soleus_l/fiber_length	/forceset/tib_post_l/activation	/forceset/tib_post_l/fiber_length	/forceset/flex_dig_l/activation	/forceset/flex_dig_l/fiber_length	/forceset/flex_hal_l/activation	/forceset/flex_hal_l/fiber_length	/forceset/tib_ant_l/activation	/forceset/tib_ant_l/fiber_length	/forceset/per_brev_l/activation	/forceset/per_brev_l/fiber_length	/forceset/per_long_l/activation	/forceset/per_long_l/fiber_length	/forceset/per_tert_l/activation	/forceset/per_tert_l/fiber_length	/forceset/ext_dig_l/activation	/forceset/ext_dig_l/fiber_length	/forceset/ext_hal_l/activation	/forceset/ext_hal_l/fiber_length	/forceset/ercspn_r/activation	/forceset/ercspn_r/fiber_length	/forceset/ercspn_l/activation	/forceset/ercspn_l/fiber_length	/forceset/intobl_r/activation	/forceset/intobl_r/fiber_length	/forceset/intobl_l/activation	/forceset/intobl_l/fiber_length	/forceset/extobl_r/activation	/forceset/extobl_r/fiber_length	/forceset/extobl_l/activation	/forceset/extobl_l/fiber_length
      0.35498534	     20.00000000	      0.00000000	      0.00000000	      0.00000000	      0.00000000	      0.00000000	      0.25000000	      0.00000000	     -5.14809417	    187.39439501	    -11.74909136	   -360.61187118	     -7.42801985	   -270.96752991	      0.04084088	     -0.46364931	      1.11415490	     -0.86477173	     -0.00086740	      0.09753267	     17.47355684	     14.33259174	      4.72150855	    261.63917920	    -14.96894330	     56.01494397	    -29.35720450	   -403.89652817	      8.29869506	   -107.41769082	     39.65730511	    484.95987937	      0.00000000	      0.00000000	    -19.99999998	      0.00000000	     10.00000028	      0.00000000	      4.99999985	     -0.00000000	   -119.99999986	      0.00000000	     11.49999977	     -0.00000000	     -0.03000064	     -0.00000000	      0.00000000	      0.00000000	    -12.35605731	   -453.98180914	     13.26347269	    314.23145626	     10.99684041	    401.69441885	      0.60857311	      0.05577156	      0.26937865	      0.08766044	      0.19408648	      0.06466331	     -0.02022974	      0.09365714	      0.00130308	      0.15815172	     -0.00572170	      0.45063261	     -0.00751955	      0.07361793	      0.24339196	      0.10339673	      0.00944643	      0.06063536	     -0.01537392	      0.29836416	      0.13008715	      0.08670237	      0.11571576	      0.09473652	      0.04156246	      0.10438917	      0.01564748	      0.09584132	      0.01385492	      0.09000432	     -0.02026218	      0.04192124	     -0.00833671	      0.02279707	      0.25372898	      0.02066730	      0.34456815	      0.10517728	      0.43070248	      0.08653529	      0.28099430	      0.08784801	      0.33033566	      0.05937363	      0.34702567	      0.08150259	      0.13038463	      0.02952514	      0.09976710	      0.02726857	      0.16947316	      0.03364615	      0.25714469	      0.06676041	      0.69394714	      0.06325907	      0.68749966	      0.05772428	      0.47985264	      0.08573020	      0.35317496	      0.09110492	      0.23947974	      0.09312251	     -0.02026218	      0.04646954	     -0.02026218	      0.07924345	     -0.02026218	      0.06066849	     -0.02026218	      0.02207317	     -0.02026218	      0.12238178	     -0.02026218	      0.45556126	     -0.02026218	      0.05828642	     -0.02026218	      0.13391495	     -0.02026218	      0.07307389	     -0.02026218	      0.24301553	     -0.02026218	      0.06638073	     -0.02026218	      0.06554424	     -0.02026218	      0.05770037	     -0.02026218	      0.11895704	     -0.02026218	      0.11276383	     -0.02026218	      0.04385542	     -0.02026218	      0.02477863	     -0.02026218	      0.02332645	     -0.02026218	      0.18252185	     -0.02026218	      0.13945923	     -0.02026218	      0.06773759	     -0.02026218	      0.04190375	     -0.02026218	      0.08593352	     -0.02026218	      0.03561976	     -0.02026218	      0.03422751	     -0.02026218	      0.04262321	     -0.02026218	      0.07211219	     -0.02026218	      0.05030461	     -0.02026218	      0.05155977	     -0.02026218	      0.07464108	     -0.02026218	      0.08888362	     -0.02026218	      0.09641128	     -0.00248282	      0.11632819	      0.38098434	      0.13663135	     -0.02026218	      0.08875971	      0.26347799	      0.10149741	     -0.02026218	      0.11619658	      0.26207204	      0.13674148
      0.35513094	     20.00000000	      0.00000000	      0.00000000	      0.00000000	      0.00000000	      0.00000000	      0.25000000	      0.00000000	     -5.12078209	    187.77139644	    -11.80152344	   -359.61146419	     -7.46742849	   -270.36153807	      0.04077334	     -0.46406528	      1.11402918	     -0.86226917	     -0.00085310	      0.09880288	     17.47550263	     12.39733595	      4.75966841	    262.53661767	    -14.96057465	     58.92832169	    -29.41591737	   -402.59318999	      8.28394446	    -95.23556974	     39.72704341	    472.91968568	      0.00000000	      0.00000000	    -19.99999998	      0.00000000	     10.00000028	      0.00000000	      4.99999985	     -0.00000000	   -119.99999986	      0.00000000	     11.49999977	     -0.00000000	     -0.03000064	     -0.00000000	      0.00000000	      0.00000000	    -12.42221030	   -454.71245666	     13.30905687	    311.92720486	     11.05528650	    401.13694988	      0.60647987	      0.05579558	      0.26901452	      0.08768407	      0.19456693	      0.06468553	     -0.02024848	      0.09361627	      0.00128433	      0.15812182	     -0.00572404	      0.45063713	     -0.00753830	      0.07357787	      0.24332902	      0.10343331	      0.00942768	      0.06059786	     -0.01539267	      0.29829743	      0.12991877	      0.08671900	      0.11552601	      0.09474854	      0.04147748	      0.10438280	      0.01561769	      0.09583428	      0.01382868	      0.08999683	     -0.02028093	      0.04190100	     -0.00614583	      0.02278807	      0.25659139	      0.02065370	      0.34437658	      0.10523530	      0.42995278	      0.08658339	      0.28005408	      0.08782678	      0.32914189	      0.05934934	      0.34574017	      0.08150127	      0.13005505	      0.02950944	      0.09953152	      0.02725250	      0.16900876	      0.03362256	      0.25631757	      0.06669727	      0.69186398	      0.06329829	      0.68534122	      0.05777601	      0.47870456	      0.08576590	      0.35225830	      0.09111024	      0.23877883	      0.09310515	     -0.02028093	      0.04646954	     -0.02028093	      0.07924345	     -0.02028093	      0.06066849	     -0.02028093	      0.02207317	     -0.02028093	      0.12238178	     -0.02028093	      0.45556126	     -0.02028093	      0.05828642	     -0.02028093	      0.13391495	     -0.02028093	      0.07307389	     -0.02028093	      0.24301553	     -0.02028093	      0.06638073	     -0.02028093	      0.06554424	     -0.02028093	      0.05770037	     -0.02028093	      0.11895704	     -0.02028093	      0.11276383	     -0.02028093	      0.04385542	     -0.02028093	      0.02477863	     -0.02028093	      0.02332645	     -0.02028093	      0.18252185	     -0.02028093	      0.13945923	     -0.02028093	      0.06773759	     -0.02028093	      0.04190375	     -0.02028093	      0.08593352	     -0.02028093	      0.03561976	     -0.02028093	      0.03422752	     -0.02028093	      0.04262323	     -0.02028093	      0.07211219	     -0.02028093	      0.05030461	     -0.02028093	      0.05155977	     -0.02028093	      0.07464108	     -0.02028093	      0.08888362	     -0.02028093	      0.09641128	     -0.00250157	      0.11631980	      0.38083428	      0.13670889	     -0.02028093	      0.08872222	      0.26262144	      0.10149878	     -0.02028093	      0.11615159	      0.26131455	      0.13675391
      0.35527653	     20.00000000	      0.00000000	      0.00000000	      0.00000000	      0.00000000	      0.00000000	      0.25000000	      0.00000000	     -5.09341531	    188.14855829	    -11.85381056	   -358.62558982	     -7.50674906	   -269.76036475	      0.04070574	     -0.46448998	      1.11390381	     -0.85977168	     -0.00083863	      0.10005827	     17.47716676	     10.46016277	      4.79795988	    263.45241647	    -14.95178635	     61.78113571	    -29.47443577	   -401.22173614	      8.27094934	    -83.32316417	     39.79499914	    460.47733278	      0.00000000	      0.00000000	    -19.99999998	      0.00000000	     10.00000028	      0.00000000	      4.99999985	     -0.00000000	   -119.99999986	      0.00000000	     11.49999977	     -0.00000000	     -0.03000064	     -0.00000000	      0.00000000	      0.00000000	    -12.48846912	   -455.44264304	     13.35430662	    309.64362531	     11.11365138	    400.58514114	      0.60439067	      0.05581938	      0.26865002	      0.08770761	      0.19504396	      0.06470778	     -0.02026723	      0.09357541	      0.00126559	      0.15809200	     -0.00572550	      0.45064217	     -0.00755704	      0.07353754	      0.24326830	      0.10346996	      0.00940893	      0.06056037	     -0.01541142	      0.29823063	      0.12974952	      0.08673552	      0.11533497	      0.09476039	      0.04139270	      0.10437604	      0.01558796	      0.09582742	      0.01380249	      0.08998952	     -0.02029967	      0.04188075	     -0.00378572	      0.02277907	      0.25943843	      0.02064029	      0.34418722	      0.10529339	      0.42920321	      0.08663135	      0.27911844	      0.08780567	      0.32795456	      0.05932515	      0.34446183	      0.08150001	      0.12972653	      0.02949376	      0.09929663	      0.02723643	      0.16854606	      0.03359898	      0.25549426	      0.06663421	      0.68975765	      0.06333706	      0.68316937	      0.05782744	      0.47751215	      0.08580038	      0.35131727	      0.09111580	      0.23806773	      0.09308814	     -0.02029967	      0.04646954	     -0.02029967	      0.07924345	     -0.02029967	      0.06066849	     -0.02029967	      0.02207317	     -0.02029967	      0.12238178	     -0.02029967	      0.45556126	     -0.02029967	      0.05828642	     -0.02029967	      0.13391495	     -0.02029967	      0.07307389	     -0.02029967	      0.24301553	     -0.02029967	      0.06638073	     -0.02029967	      0.06554424	     -0.02029967	      0.05770037	     -0.02029967	      0.11895704	     -0.02029967	      0.11276383	     -0.02029967	      0.04385542	     -0.02029967	      0.02477863	     -0.02029967	      0.02332645	     -0.02029967	      0.18252185	     -0.02029967	      0.13945923	     -0.02029967	      0.06773759	     -0.02029967	      0.04190375	     -0.02029967	      0.08593352	     -0.02029967	      0.03561976	     -0.02029967	      0.03422754	     -0.02029967	      0.04262324	     -0.02029967	      0.07211219	     -0.02029967	      0.05030461	     -0.02029967	      0.05155977	     -0.02029967	      0.07464108	     -0.02029967	      0.08888362	     -0.02029967	      0.09641128	     -0.00252032	      0.11631167	      0.38068128	      0.13677236	     -0.02029967	      0.08868473	      0.26176890	      0.10149994	     -0.02029967	      0.11610660	      0.26055323	      0.13676598
      0.35542213	     20.00000000	      0.00000000	      0.00000000	      0.00000000	      0.00000000	      0.00000000	      0.25000000	      0.00000000	     -5.06599397	    188.51817392	    -11.90595455	   -357.64052187	     -7.54598208	   -269.15605900	      0.04063808	     -0.46490197	      1.11377881	     -0.85730336	     -0.00082397	      0.10130863	     17.47854891	      8.52653515	      4.83638533	    264.37151022	    -14.94258738	     64.56744162	    -29.53274875	   -399.77033553	      8.25966527	    -71.73731537	     39.86111592	    447.66553028	      0.00000000	      0.00000000	    -19.99999998	      0.00000000	     10.00000028	      0.00000000	      4.99999985	     -0.00000000	   -119.99999986	      0.00000000	     11.49999977	     -0.00000000	     -0.03000064	     -0.00000000	      0.00000000	      0.00000000	    -12.55483330	   -456.15256107	     13.39922464	    307.36451842	     11.17193548	    400.02087947	      0.60230584	      0.05584296	      0.26828520	      0.08773107	      0.19551736	      0.06473007	     -0.02028597	      0.09353454	      0.00124684	      0.15806228	     -0.00572606	      0.45064773	     -0.00757579	      0.07349694	      0.24320988	      0.10350667	      0.00939019	      0.06052288	     -0.01543016	      0.29816374	      0.12957943	      0.08675192	      0.11514264	      0.09477207	      0.04130811	      0.10436887	      0.01555830	      0.09582074	      0.01377636	      0.08998241	     -0.02031842	      0.04186051	     -0.00126085	      0.02277007	      0.26226953	      0.02062708	      0.34399989	      0.10535154	      0.42845359	      0.08667915	      0.27818734	      0.08778468	      0.32677364	      0.05930107	      0.34319614	      0.08149881	      0.12939907	      0.02947809	      0.09906242	      0.02722037	      0.16808504	      0.03357542	      0.25467474	      0.06657124	      0.68762677	      0.06337537	      0.68098248	      0.05787857	      0.47627611	      0.08583362	      0.35035256	      0.09112161	      0.23734701	      0.09307145	     -0.02031842	      0.04646954	     -0.02031842	      0.07924345	     -0.02031842	      0.06066849	     -0.02031842	      0.02207317	     -0.02031842	      0.12238178	     -0.02031842	      0.45556126	     -0.02031842	      0.05828642	     -0.02031842	      0.13391495	     -0.02031842	      0.07307389	     -0.02031842	      0.24301553	     -0.02031842	      0.06638073	     -0.02031842	      0.06554424	     -0.02031842	      0.05770037	     -0.02031842	      0.11895704	     -0.02031842	      0.11276383	     -0.02031842	      0.04385542	     -0.02031842	      0.02477863	     -0.02031842	      0.02332645	     -0.02031842	      0.18252185	     -0.02031842	      0.13945923	     -0.02031842	      0.06773759	     -0.02031842	      0.04190375	     -0.02031842	      0.08593352	     -0.02031842	      0.03561976	     -0.02031842	      0.03422755	     -0.02031842	      0.04262326	     -0.02031842	      0.07211219	     -0.02031842	      0.05030461	     -0.02031842	      0.05155977	     -0.02031842	      0.07464108	     -0.02031842	      0.08888362	     -0.02031842	      0.09641128	     -0.00253906	      0.11630380	      0.38052537	      0.13684947	     -0.02031842	      0.08864724	      0.26092033	      0.10150088	     -0.02031842	      0.11606161	      0.25978815	      0.13677767
